HIERARCHY
ROOT Hip
{
	OFFSET 0 1.131 0.0052
	CHANNELS 6 Xposition Yposition Zposition Xrotation Yrotation Zrotation
	JOINT Abdomen
	{
		OFFSET 0 -0.047353 -0.05
		CHANNELS 3 Xrotation Zrotation Yrotation
		JOINT Chest
		{
			OFFSET 0 0.132153 0.007439
			CHANNELS 3 Xrotation Zrotation Yrotation
			JOINT Neck
			{
				OFFSET 0 0.3078 0.006161
				CHANNELS 3 Xrotation Zrotation Yrotation
				JOINT Head_comp
				{
					OFFSET 0 0.0884 0.013
					CHANNELS 3 Xrotation Yrotation Zrotation
					End Site
					{
						OFFSET -0 0.156 0.0624
					}
				}
			}
			JOINT Left_Collar
			{
				OFFSET 0.02282 0.250342 0.017193
				CHANNELS 2 Yrotation Zrotation
				JOINT Left_Shoulder
				{
					OFFSET 0.15421 0 0
					CHANNELS 3 Xrotation Yrotation Zrotation
					JOINT Left_Forearm
					{
						OFFSET 0.265212 0 0
						CHANNELS 2 Yrotation Xrotation
						JOINT Left_Hand
						{
							OFFSET 0.27571 0 0
							CHANNELS 2 Zrotation Yrotation
							JOINT L1ProxPhalanx
							{
								OFFSET 0.014142 0.001733 0.014142
								CHANNELS 3 Yrotation Zrotation Xrotation
								JOINT L1MidPhalanx
								{
									OFFSET 0.04 0 0
									CHANNELS 1 Zrotation
									JOINT L1DistPhalanx
									{
										OFFSET 0.035 0 0
										CHANNELS 1 Zrotation
										End Site
										{
											OFFSET 0.029 -0 -0
										}
									}
								}
							}
							JOINT L2ProxPhalanx
							{
								OFFSET 0.0821037 0.001578 0.0219996
								CHANNELS 2 Yrotation Zrotation
								JOINT L2MidPhalanx
								{
									OFFSET 0.04 0 0
									CHANNELS 1 Zrotation
									JOINT L2DistPhalanx
									{
										OFFSET 0.028 0 0
										CHANNELS 1 Zrotation
										End Site
										{
											OFFSET 0.02 -0 -0
										}
									}
								}
							}
							JOINT L3ProxPhalanx
							{
								OFFSET 0.083 0 0
								CHANNELS 2 Yrotation Zrotation
								JOINT L3MidPhalanx
								{
									OFFSET 0.053 0 0
									CHANNELS 1 Zrotation
									JOINT L3DistPhalanx
									{
										OFFSET 0.03 0 0
										CHANNELS 1 Zrotation
										End Site
										{
											OFFSET 0.023 -0 -0
										}
									}
								}
							}
							JOINT L4ProxPhalanx
							{
								OFFSET 0.077274 -0.000761 -0.0207055
								CHANNELS 2 Yrotation Zrotation
								JOINT L4MidPhalanx
								{
									OFFSET 0.05 0 0
									CHANNELS 1 Zrotation
									JOINT L4DistPhalanx
									{
										OFFSET 0.03 0 0
										CHANNELS 1 Zrotation
										End Site
										{
											OFFSET 0.023 -0 -0
										}
									}
								}
							}
							JOINT L5ProxPhalanx
							{
								OFFSET 0.0675499 -0.001644 -0.039
								CHANNELS 2 Yrotation Zrotation
								JOINT L5MidPhalanx
								{
									OFFSET 0.04 0 0
									CHANNELS 1 Zrotation
									JOINT L5DistPhalanx
									{
										OFFSET 0.021 0 0
										CHANNELS 1 Zrotation
										End Site
										{
											OFFSET 0.022 -0 -0
										}
									}
								}
							}
						}
					}
				}
			}
			JOINT Right_Collar
			{
				OFFSET -0.02282 0.250342 0.017193
				CHANNELS 2 Yrotation Zrotation
				JOINT Right_Shoulder
				{
					OFFSET -0.15421 0 0
					CHANNELS 3 Xrotation Yrotation Zrotation
					JOINT Right_Forearm
					{
						OFFSET -0.265212 0 0
						CHANNELS 2 Yrotation Xrotation
						JOINT Right_Hand
						{
							OFFSET -0.27571 3e-006 0
							CHANNELS 2 Zrotation Yrotation
							JOINT R1ProxPhalanx
							{
								OFFSET -0.014142 0.001733 0.014142
								CHANNELS 3 Yrotation Zrotation Xrotation
								JOINT R1MidPhalanx
								{
									OFFSET -0.04 0 0
									CHANNELS 1 Zrotation
									JOINT R1DistPhalanx
									{
										OFFSET -0.035 0 0
										CHANNELS 1 Zrotation
										End Site
										{
											OFFSET -0.029 -0 -0
										}
									}
								}
							}
							JOINT R2ProxPhalanx
							{
								OFFSET -0.0821037 0.001578 0.0219996
								CHANNELS 2 Yrotation Zrotation
								JOINT R2MidPhalanx
								{
									OFFSET -0.04 0 0
									CHANNELS 1 Zrotation
									JOINT R2DistPhalanx
									{
										OFFSET -0.028 0 0
										CHANNELS 1 Zrotation
										End Site
										{
											OFFSET -0.02 -0 -0
										}
									}
								}
							}
							JOINT R3ProxPhalanx
							{
								OFFSET -0.083 0 0
								CHANNELS 2 Yrotation Zrotation
								JOINT R3MidPhalanx
								{
									OFFSET -0.053 0 0
									CHANNELS 1 Zrotation
									JOINT R3DistPhalanx
									{
										OFFSET -0.03 0 0
										CHANNELS 1 Zrotation
										End Site
										{
											OFFSET -0.023 -0 -0
										}
									}
								}
							}
							JOINT R4ProxPhalanx
							{
								OFFSET -0.077274 -0.000761 -0.0207055
								CHANNELS 2 Yrotation Zrotation
								JOINT R4MidPhalanx
								{
									OFFSET -0.05 0 0
									CHANNELS 1 Zrotation
									JOINT R4DistPhalanx
									{
										OFFSET -0.03 0 0
										CHANNELS 1 Zrotation
										End Site
										{
											OFFSET -0.023 -0 -0
										}
									}
								}
							}
							JOINT R5ProxPhalanx
							{
								OFFSET -0.0675499 -0.001644 -0.039
								CHANNELS 2 Yrotation Zrotation
								JOINT R5MidPhalanx
								{
									OFFSET -0.04 0 0
									CHANNELS 1 Zrotation
									JOINT R5DistPhalanx
									{
										OFFSET -0.021 0 0
										CHANNELS 1 Zrotation
										End Site
										{
											OFFSET -0.022 -0 -0
										}
									}
								}
							}
						}
					}
				}
			}
		}
	}
	JOINT Left_Thigh
	{
		OFFSET 0.1118 -0.1612 -0.0442
		CHANNELS 3 Xrotation Zrotation Yrotation
		JOINT Left_Shin
		{
			OFFSET 0 -0.477856 0
			CHANNELS 1 Xrotation
			JOINT Left_Foot
			{
				OFFSET 0 -0.431952 0
				CHANNELS 2 Xrotation Zrotation
				JOINT Left_Toe
				{
					OFFSET 0 -0.0442 0.119
					CHANNELS 1 Xrotation
					End Site
					{
						OFFSET -0 -0 0.07
					}
				}
			}
		}
	}
	JOINT Right_Thigh
	{
		OFFSET -0.1118 -0.1612 -0.0442
		CHANNELS 3 Xrotation Zrotation Yrotation
		JOINT Right_Shin
		{
			OFFSET 0 -0.477856 0
			CHANNELS 1 Xrotation
			JOINT Right_Foot
			{
				OFFSET 0 -0.431952 0
				CHANNELS 2 Xrotation Zrotation
				JOINT Right_Toe
				{
					OFFSET 0 -0.0442 0.119
					CHANNELS 1 Xrotation
					End Site
					{
						OFFSET -0 -0 0.07
					}
				}
			}
		}
	}
}
MOTION
Frames: 10
Frame Time: 0.009975
-0.0993076 -0.0600824 0.0418944 -1.23481e-012 1.62223e-008 -5.10978e-006 0 -0 0 0 -0 0 0 -0 0 -0.71224 0.285054 -2.27829e-015 3.00837 -32.1381 2.29477 -24.1168 -30.1884 -97.798 -1.98392 -1.38014 14.3293 -40.5316 -43.5896 103.283 -7.10789 -4.81548 2.69559 -7.40342 -2.98992 -6.72733 5.89092 0.508958 -5.4973 -5.3917 11.1257 1.19015 -12.1062 -9.35422 19.4153 3.33565 -41.2194 -1.46018 1.06855 25.7347 -5.77494 31.8759 32.9404 51.4437 13.9089 -1.1232 -9.19071 49.3929 55.0908 93.4211 17.8797 22.2903 -5.48994 44.9107 26.8906 31.2702 -4.12475 69.05 63.2021 56.7791 -4.19801 70.5667 87.0401 24.6494 -8.60974 67.2224 129.631 -54.8803 0.17089 -0.786739 -0.00234648 0.0240216 -0.194896 0.786748 0 0.182295 -0.786739 -0.00250308 2.41484e-006 -0.182281 0.786748 0 
-0.0993097 -0.0600824 0.0419046 -3.05776e-012 1.62934e-008 -5.10978e-006 0 -0 0 0 -0 0 0 -0 0 -0.712241 0.285049 7.76353e-014 3.00837 -32.1381 2.29477 -24.1168 -30.1884 -97.798 -1.98392 -1.38014 14.3293 -40.5316 -43.5896 103.283 -7.10789 -4.81548 2.69559 -7.40342 -2.98992 -6.72733 5.89092 0.508958 -5.4973 -5.3917 11.1257 1.19015 -12.1062 -9.35422 19.4153 3.33565 -41.2194 -1.46018 1.07698 25.7783 -5.60631 31.9459 32.7227 51.4505 13.7995 -1.10449 -9.12698 52.5412 54.8365 97.2188 18.0967 16.9812 -5.732 50.1048 35.7566 45.8318 -4.17591 68.7567 65.1034 55.5604 -4.53821 70.0552 87.0133 20.6217 -10.6474 64.545 124.248 -58.2784 0.171531 -0.786602 -0.00235487 0.0240216 -0.195537 0.786611 0 0.182936 -0.786602 -0.00251144 1.42998e-006 -0.18292 0.786611 0 
-0.0992942 -0.0600826 0.041909 -2.94613e-012 1.63367e-008 -5.10978e-006 0 -0 0 0 -0 0 0 -0 0 -0.712243 0.285006 8.63287e-014 3.00837 -32.1381 2.29477 -24.1168 -30.1884 -97.798 -1.98392 -1.38014 14.3293 -40.5316 -43.5896 103.283 -7.10789 -4.81548 2.69559 -7.40342 -2.98992 -6.72733 5.89092 0.508958 -5.4973 -5.3917 11.1257 1.19015 -12.1062 -9.35422 19.4153 3.33565 -41.2194 -1.46018 1.04843 25.7839 -5.69336 31.9156 32.7192 51.4157 13.8259 -1.19705 -9.05343 55.3597 57.8366 99.7314 13.6458 11.0415 -2.75735 35.8125 12.2709 20.3222 -5.01127 33.6217 33.9009 29.0617 -9.6612 32.9922 56.2472 6.78669 -15.2934 28.1566 94.0772 -45.9922 0.171808 -0.787581 -0.00236161 0.0240216 -0.195814 0.78759 0 0.183214 -0.78758 -0.00251839 8.40967e-007 -0.183198 0.78759 0 
-0.0992675 -0.0600829 0.0418939 9.42657e-013 1.63425e-008 -5.10978e-006 0 -0 0 0 -0 0 0 -0 0 -0.712242 0.284923 -2.59734e-013 3.00837 -32.1381 2.29477 -24.1168 -30.1884 -97.798 -1.98392 -1.38014 14.3293 -40.5316 -43.5896 103.283 -7.10789 -4.81548 2.69559 -7.40342 -2.98992 -6.72733 5.89092 0.508958 -5.4973 -5.3917 11.1257 1.19015 -12.1062 -9.35422 19.4153 3.33565 -41.2194 -1.46018 1.03324 25.7754 -5.78912 31.8268 32.7863 51.4691 13.7874 -1.25741 -8.96802 65.8517 56.5137 97.0372 11.9313 2.96713 2.49471 20.1234 -6.98667 -2.67804 -4.30339 -0.0991968 1.51792 2.57017 -12.8415 -1.72647 21.2205 -5.62085 -16.0027 -5.54301 66.0999 -36.4687 0.170857 -0.78926 -0.00235353 0.0240216 -0.194863 0.789269 0 0.182263 -0.78926 -0.00251065 1.70755e-006 -0.182248 0.789269 0 
-0.0992579 -0.0600831 0.0418893 -1.67762e-012 1.61634e-008 -5.10978e-006 0 -0 0 0 -0 0 0 -0 0 -0.712241 0.2849 5.70282e-014 3.00837 -32.1381 2.29477 -24.1168 -30.1884 -97.798 -1.98392 -1.38014 14.3293 -40.5316 -43.5896 103.283 -7.10789 -4.81548 2.69559 -7.40342 -2.98992 -6.72733 5.89092 0.508958 -5.4973 -5.3917 11.1257 1.19015 -12.1062 -9.35422 19.4153 3.33565 -41.2194 -1.46018 1.02092 25.834 -5.45268 31.8613 32.4961 51.8232 13.4347 -1.34647 -8.95546 66.2477 55.4113 80.4163 9.4681 8.07803 1.98734 19.737 -6.28306 -2.41783 -4.94065 -0.121163 1.12648 2.18343 -13.1808 -1.81007 20.3696 -5.34937 -16.1832 -5.57952 65.7553 -36.7302 0.170565 -0.789864 -0.0023513 0.0240216 -0.19457 0.789873 0 0.181971 -0.789864 -0.00250854 1.70755e-006 -0.181955 0.789873 0 
-0.099277 -0.0600829 0.0419112 -4.87996e-012 1.62973e-008 -5.10978e-006 0 -0 0 0 -0 0 0 -0 0 -0.712241 0.284971 -2.5423e-014 3.00837 -32.1381 2.29477 -24.1168 -30.1884 -97.798 -1.98392 -1.38014 14.3293 -40.5316 -43.5896 103.283 -7.10789 -4.81548 2.69559 -7.40342 -2.98992 -6.72733 5.89092 0.508958 -5.4973 -5.3917 11.1257 1.19015 -12.1062 -9.35422 19.4153 3.33565 -41.2194 -1.46018 1.02892 25.9832 -4.57915 32.0456 31.7019 52.5457 12.7413 -1.50753 -9.0138 66.116 54.7442 62.5065 6.41138 13.4184 1.72375 19.8987 -6.12516 -2.20517 -5.48162 -0.0796489 1.118 2.13717 -13.1998 -1.81304 20.3216 -4.75958 -16.1554 -5.55639 65.0139 -35.0066 0.171949 -0.788665 -0.00236679 0.0240216 -0.195954 0.788674 0 0.183355 -0.788664 -0.00252378 8.79387e-007 -0.183338 0.788674 0 
-0.099273 -0.060083 0.0419449 -2.62962e-012 1.64104e-008 -5.10978e-006 0 -0 0 0 -0 0 0 -0 0 -0.712245 0.284926 3.0426e-012 3.00837 -32.1381 2.29477 -24.1168 -30.1884 -97.798 -1.98392 -1.38014 14.3293 -40.5316 -43.5896 103.283 -7.10789 -4.81548 2.69559 -7.40342 -2.98992 -6.72733 5.89092 0.508958 -5.4973 -5.3917 11.1257 1.19015 -12.1062 -9.35422 19.4153 3.33565 -41.2194 -1.46018 0.974982 26.0069 -4.35346 31.9948 31.5116 53.1898 12.3125 -1.64309 -9.0456 67.5439 56.4455 66.0371 7.10681 12.3464 1.3663 19.9214 -5.62643 -1.82471 -5.81074 -0.0104482 1.2034 2.24484 -13.0075 -1.8216 20.6613 -4.09369 -15.9653 -5.54922 65.0488 -35.0366 0.174069 -0.788913 -0.00239673 0.0240216 -0.198074 0.788922 0 0.185475 -0.788912 -0.00255378 0 -0.185457 0.788921 0 
-0.0992459 -0.0600836 0.0419963 -1.47811e-012 1.66814e-008 -5.10978e-006 0 -0 0 0 -0 0 0 -0 0 -0.712251 0.284825 6.21815e-014 3.00837 -32.1381 2.29477 -24.1168 -30.1884 -97.798 -1.98392 -1.38014 14.3293 -40.5316 -43.5896 103.283 -7.10789 -4.81548 2.69559 -7.40342 -2.98992 -6.72733 5.89092 0.508958 -5.4973 -5.3917 11.1257 1.19015 -12.1062 -9.35422 19.4153 3.33565 -41.2194 -1.46018 0.831557 25.9066 -4.84381 31.6525 31.9609 53.7937 12.1728 -1.80388 -9.08996 68.7981 58.1062 71.8007 8.32097 10.816 1.05054 19.8165 -5.1153 -1.49569 -5.80213 0.0244905 1.14464 2.26586 -12.882 -1.84182 20.807 -3.39313 -15.5247 -5.56881 65.3146 -35.3472 0.177305 -0.790623 -0.00244659 0.0240216 -0.20131 0.790632 0 0.188711 -0.790623 -0.00260397 1.15912e-006 -0.188694 0.790632 0 
-0.0992261 -0.060084 0.042057 -1.74063e-014 1.69905e-008 -5.10978e-006 0 -0 0 0 -0 0 0 -0 0 -0.712255 0.284797 4.98847e-013 3.00837 -32.1381 2.29477 -24.1168 -30.1884 -97.798 -1.98392 -1.38014 14.3293 -40.5316 -43.5896 103.283 -7.10789 -4.81548 2.69559 -7.40342 -2.98992 -6.72733 5.89092 0.508958 -5.4973 -5.3917 11.1257 1.19015 -12.1062 -9.35422 19.4153 3.33565 -41.2194 -1.46018 0.704364 25.8537 -4.97311 31.319 32.0694 54.8184 11.7678 -1.97862 -9.25721 68.7565 58.4093 72.7901 8.46688 10.3801 0.841228 20.0096 -5.10866 -1.48349 -5.85129 0.0377306 1.17539 2.37564 -12.9754 -1.83304 20.8456 -3.22596 -15.6613 -5.55348 65.9149 -35.4465 0.181127 -0.79187 -0.00250326 0.0240216 -0.205131 0.791879 0 0.192533 -0.79187 -0.0026609 2.41484e-006 -0.192517 0.791879 0 
-0.0992198 -0.0600844 0.0421384 1.13923e-012 1.73678e-008 -5.10978e-006 0 -0 0 0 -0 0 0 -0 0 -0.712261 0.284741 1.16347e-012 3.00837 -32.1381 2.29477 -24.1168 -30.1884 -97.798 -1.98392 -1.38014 14.3293 -40.5316 -43.5896 103.283 -7.10789 -4.81548 2.69559 -7.40342 -2.98992 -6.72733 5.89092 0.508958 -5.4973 -5.3917 11.1257 1.19015 -12.1062 -9.35422 19.4153 3.33565 -41.2194 -1.46018 0.553095 25.8238 -4.79594 31.0688 32.0088 56.1878 11.098 -2.20969 -9.39224 70.492 54.5181 71.3804 8.58634 10.5271 2.03951 18.2354 -3.82776 -0.554044 -5.68004 0.897985 1.44843 2.81106 -13.7749 -1.49091 19.5986 -5.02474 -18.9007 -5.21384 68.4732 -37.7703 0.186254 -0.792269 -0.00257541 0.0240216 -0.210258 0.792278 0 0.19766 -0.792269 -0.00273312 2.41484e-006 -0.197643 0.792278 0 
